<svg xmlns="http://www.w3.org/2000/svg" xmlns:xlink="http://www.w3.org/1999/xlink" width="390" zoomAndPan="magnify" viewBox="0 0 292.5 149.999998" height="200" preserveAspectRatio="xMidYMid meet" version="1.0"><defs><g/><clipPath id="9b2254f44f"><path d="M 68 29 L 118.371094 29 L 118.371094 57 L 68 57 Z M 68 29 " clip-rule="nonzero"/></clipPath><clipPath id="b3d934f00b"><path d="M 20.121094 29 L 72 29 L 72 70 L 20.121094 70 Z M 20.121094 29 " clip-rule="nonzero"/></clipPath><clipPath id="8a6cf36e87"><path d="M 40 74 L 70 74 L 70 116.515625 L 40 116.515625 Z M 40 74 " clip-rule="nonzero"/></clipPath><clipPath id="a009d1237e"><path d="M 73 74 L 103 74 L 103 116.515625 L 73 116.515625 Z M 73 74 " clip-rule="nonzero"/></clipPath></defs><g clip-path="url(#9b2254f44f)"><path fill="#140f0f" d="M 83.351562 33.296875 C 77.222656 31.191406 68.96875 43.597656 68.96875 43.597656 C 68.96875 43.597656 75.097656 27.261719 84.914062 30.054688 C 97.164062 33.539062 77.585938 51.769531 77.585938 51.769531 C 77.585938 51.769531 92.863281 59.15625 117.421875 41.9375 L 118.347656 50.011719 C 88.945312 62.847656 72.644531 53.183594 72.644531 53.183594 C 72.644531 53.183594 89.484375 35.402344 83.351562 33.296875 " fill-opacity="1" fill-rule="nonzero"/></g><g clip-path="url(#b3d934f00b)"><path fill="#140f0f" d="M 59.523438 33.296875 C 63.125 32.058594 67.460938 35.835938 70.425781 39.15625 C 70.636719 38.78125 70.863281 38.390625 71.105469 38 C 68.394531 33.566406 63.839844 28.382812 57.960938 30.054688 C 45.714844 33.539062 65.292969 51.769531 65.292969 51.769531 C 65.292969 51.769531 58.4375 53.074219 49.882812 52.121094 C 40.3125 51.054688 30.59375 50.316406 20.140625 63.34375 L 23.199219 69.964844 C 26.585938 65.910156 31.015625 56.121094 45.414062 56.121094 C 63.414062 56.121094 70.230469 53.183594 70.230469 53.183594 C 70.230469 53.183594 53.394531 35.402344 59.523438 33.296875 " fill-opacity="1" fill-rule="nonzero"/></g><g clip-path="url(#8a6cf36e87)"><path fill="#140f0f" d="M 43.042969 116.507812 L 69.046875 116.507812 L 69.046875 74.082031 L 40.789062 74.082031 L 43.042969 116.507812 " fill-opacity="1" fill-rule="nonzero"/></g><path fill="#140f0f" d="M 37.621094 69.964844 L 69.046875 69.964844 L 69.046875 62.375 L 37.621094 62.375 L 37.621094 69.964844 " fill-opacity="1" fill-rule="nonzero"/><g clip-path="url(#a009d1237e)"><path fill="#140f0f" d="M 73.953125 116.507812 L 99.957031 116.507812 L 102.210938 74.082031 L 73.953125 74.082031 L 73.953125 116.507812 " fill-opacity="1" fill-rule="nonzero"/></g><path fill="#140f0f" d="M 73.953125 62.375 L 73.953125 69.964844 L 105.378906 69.964844 L 105.378906 62.375 L 73.953125 62.375 " fill-opacity="1" fill-rule="nonzero"/><g fill="#000000" fill-opacity="1"><g transform="translate(115.005346, 86.173171)"><g><path d="M 2.644531 0 L 9.617188 0 C 8.03125 -2.089844 7.074219 -4.378906 6.695312 -7.25 L 13.441406 -7.25 L 13.441406 -3.121094 C 13.441406 -1.863281 13.140625 -0.503906 12.5625 0 L 19.988281 0 C 19.410156 -0.503906 19.105469 -1.886719 19.105469 -3.148438 L 19.105469 -22.457031 C 18.378906 -23.816406 15.886719 -24.671875 13.542969 -24.671875 C 5.363281 -24.671875 0.882812 -17.21875 0.882812 -10.296875 C 0.882812 -6.191406 1.433594 -3.574219 2.644531 0 Z M 6.722656 -12.035156 C 7.226562 -15.355469 9.0625 -19.484375 13.46875 -19.484375 L 13.441406 -12.035156 Z M 6.722656 -12.035156 "/></g></g></g><g fill="#000000" fill-opacity="1"><g transform="translate(137.383371, 86.173171)"><g><path d="M 7.929688 0 C 7.351562 -0.503906 7.046875 -1.886719 7.046875 -3.148438 L 7.046875 -14.097656 L 12.636719 -0.703125 L 18.199219 -14.023438 L 18.199219 -3.148438 C 18.199219 -1.886719 17.898438 -0.503906 17.320312 0 L 24.746094 0 C 24.167969 -0.503906 23.863281 -1.863281 23.863281 -3.121094 L 23.863281 -21.171875 C 23.863281 -22.429688 24.167969 -23.789062 24.746094 -24.292969 L 18.199219 -24.292969 L 12.636719 -11.480469 L 7.046875 -24.292969 L 0.503906 -24.292969 C 1.082031 -23.789062 1.382812 -22.429688 1.382812 -21.171875 L 1.382812 -3.121094 C 1.382812 -1.863281 1.082031 -0.503906 0.503906 0 Z M 7.929688 0 "/></g></g></g><g fill="#000000" fill-opacity="1"><g transform="translate(164.770511, 86.173171)"><g><path d="M 0.503906 0 L 7.929688 0 C 7.351562 -0.503906 7.046875 -1.863281 7.046875 -3.121094 L 7.046875 -21.171875 C 7.046875 -22.429688 7.351562 -23.789062 7.929688 -24.292969 L 0.503906 -24.292969 C 1.082031 -23.789062 1.382812 -22.40625 1.382812 -21.144531 L 1.382812 -3.148438 C 1.382812 -1.886719 1.082031 -0.503906 0.503906 0 Z M 0.503906 0 "/></g></g></g><g fill="#000000" fill-opacity="1"><g transform="translate(175.343154, 86.173171)"><g><path d="M 0.882812 -12.160156 C 0.882812 -5.234375 5.589844 0.378906 12.914062 0.378906 C 16.386719 0.378906 19.207031 -0.25 21.273438 -2.316406 L 21.273438 -12.160156 L 15.609375 -12.160156 L 15.609375 -4.507812 C 14.828125 -4.253906 14.074219 -4.128906 13.367188 -4.128906 C 9.492188 -4.128906 6.546875 -7.5 6.546875 -12.132812 C 6.546875 -17.320312 9.96875 -19.863281 13.847656 -19.863281 C 18.199219 -19.863281 19.964844 -16.816406 19.964844 -16.816406 C 19.964844 -16.816406 20.742188 -19.484375 21.597656 -21.550781 C 19.660156 -23.6875 16.488281 -24.671875 12.914062 -24.671875 C 5.589844 -24.671875 0.882812 -19.058594 0.882812 -12.160156 Z M 0.882812 -12.160156 "/></g></g></g><g fill="#000000" fill-opacity="1"><g transform="translate(199.583871, 86.173171)"><g><path d="M 0.882812 -12.132812 C 0.882812 -5.234375 4.304688 0.378906 12.261719 0.378906 C 20.214844 0.378906 23.636719 -5.234375 23.636719 -12.132812 C 23.636719 -19.058594 20.214844 -24.671875 12.261719 -24.671875 C 4.304688 -24.671875 0.882812 -19.058594 0.882812 -12.132812 Z M 6.546875 -12.160156 C 6.546875 -16.386719 8.257812 -19.8125 12.234375 -19.8125 C 16.261719 -19.8125 17.972656 -16.386719 17.972656 -12.160156 C 17.972656 -7.953125 16.261719 -4.507812 12.234375 -4.507812 C 8.257812 -4.507812 6.546875 -7.953125 6.546875 -12.160156 Z M 6.546875 -12.160156 "/></g></g></g><g fill="#000000" fill-opacity="1"><g transform="translate(115.005346, 114.499494)"><g><path d="M 0.503906 -4.128906 C 1.15625 -1.964844 5.210938 0.378906 9.441406 0.378906 C 15.078125 0.378906 19.382812 -2.492188 19.382812 -7.425781 C 19.382812 -15.960938 7.425781 -13.265625 7.425781 -17.269531 C 7.425781 -18.90625 9.414062 -19.558594 11.027344 -19.558594 C 13.292969 -19.558594 15.304688 -18.402344 16.742188 -17.09375 C 17.597656 -18.78125 18.703125 -20.214844 19.558594 -21.523438 C 18.050781 -22.808594 15.707031 -24.671875 10.898438 -24.671875 C 5.941406 -24.671875 0.980469 -21.875 0.980469 -17.117188 C 0.980469 -8.484375 13.191406 -10.648438 13.191406 -6.949219 C 13.191406 -5.234375 11.453125 -4.554688 9.589844 -4.554688 C 7.023438 -4.554688 4.683594 -6.292969 3.375 -8.382812 C 2.644531 -6.898438 1.585938 -5.4375 0.503906 -4.128906 Z M 0.503906 -4.128906 "/></g></g></g><g fill="#000000" fill-opacity="1"><g transform="translate(137.207178, 114.499494)"><g><path d="M 12.914062 0.378906 C 16.488281 0.378906 19.660156 -0.628906 21.597656 -2.769531 C 20.742188 -4.832031 19.964844 -7.5 19.964844 -7.5 C 19.964844 -7.5 18.199219 -4.457031 13.847656 -4.457031 C 11.605469 -4.457031 9.515625 -5.3125 8.15625 -7.023438 C 7.097656 -9.492188 9.539062 -10.625 12.585938 -10.625 C 14.550781 -10.625 16.539062 -9.765625 17.546875 -8.910156 L 17.546875 -14.476562 C 17.144531 -15.230469 15.382812 -15.886719 13.847656 -15.886719 C 9.84375 -15.886719 7.046875 -12.585938 7.324219 -8.359375 C 6.820312 -9.390625 6.546875 -10.648438 6.546875 -12.132812 C 6.546875 -17.320312 9.96875 -19.863281 13.847656 -19.863281 C 18.199219 -19.863281 19.964844 -16.816406 19.964844 -16.816406 C 19.964844 -16.816406 20.742188 -19.484375 21.597656 -21.550781 C 19.660156 -23.6875 16.488281 -24.671875 12.914062 -24.671875 C 5.589844 -24.671875 0.882812 -19.058594 0.882812 -12.160156 C 0.882812 -5.261719 5.589844 0.378906 12.914062 0.378906 Z M 12.914062 0.378906 "/></g></g></g><g fill="#000000" fill-opacity="1"><g transform="translate(160.944464, 114.499494)"><g><path d="M 12.914062 0.378906 C 16.488281 0.378906 19.660156 -0.628906 21.597656 -2.769531 C 20.742188 -4.832031 19.964844 -7.5 19.964844 -7.5 C 19.964844 -7.5 18.199219 -4.457031 13.847656 -4.457031 C 9.96875 -4.457031 6.546875 -7 6.546875 -12.132812 C 6.546875 -17.320312 9.96875 -19.863281 13.847656 -19.863281 C 18.199219 -19.863281 19.964844 -16.816406 19.964844 -16.816406 C 19.964844 -16.816406 20.742188 -19.484375 21.597656 -21.550781 C 19.660156 -23.6875 16.488281 -24.671875 12.914062 -24.671875 C 5.589844 -24.671875 0.882812 -19.058594 0.882812 -12.160156 C 0.882812 -5.261719 5.589844 0.378906 12.914062 0.378906 Z M 12.914062 0.378906 "/></g></g></g><g fill="#000000" fill-opacity="1"><g transform="translate(184.68175, 114.499494)"><g><path d="M 1.382812 -21.144531 L 1.382812 -3.148438 C 1.382812 -1.886719 1.082031 -0.503906 0.503906 0 L 7.929688 0 C 7.351562 -0.503906 7.046875 -1.863281 7.046875 -3.121094 L 7.046875 -13.570312 L 11.078125 -2.390625 C 11.554688 -1.234375 11.453125 -0.429688 11.078125 0 L 19.382812 0 C 18.453125 -0.476562 17.21875 -2.242188 15.808594 -5.964844 L 14.375 -9.765625 C 17.34375 -10.671875 19.460938 -13.039062 19.460938 -16.539062 C 19.460938 -21.625 15.003906 -24.292969 11.027344 -24.292969 L 0.503906 -24.292969 C 1.082031 -23.789062 1.382812 -22.40625 1.382812 -21.144531 Z M 7.046875 -13.570312 L 7.046875 -19.511719 L 10.699219 -19.511719 C 12.761719 -19.511719 13.847656 -18.101562 13.847656 -16.539062 C 13.847656 -15.15625 12.8125 -13.570312 10.648438 -13.570312 Z M 7.046875 -13.570312 "/></g></g></g><g fill="#000000" fill-opacity="1"><g transform="translate(206.782896, 114.499494)"><g><path d="M 12.914062 0.378906 C 16.488281 0.378906 19.660156 -0.628906 21.597656 -2.769531 C 20.742188 -4.832031 19.964844 -7.5 19.964844 -7.5 C 19.964844 -7.5 18.199219 -4.457031 13.847656 -4.457031 C 11.605469 -4.457031 9.515625 -5.3125 8.15625 -7.023438 C 7.097656 -9.492188 9.539062 -10.625 12.585938 -10.625 C 14.550781 -10.625 16.539062 -9.765625 17.546875 -8.910156 L 17.546875 -14.476562 C 17.144531 -15.230469 15.382812 -15.886719 13.847656 -15.886719 C 9.84375 -15.886719 7.046875 -12.585938 7.324219 -8.359375 C 6.820312 -9.390625 6.546875 -10.648438 6.546875 -12.132812 C 6.546875 -17.320312 9.96875 -19.863281 13.847656 -19.863281 C 18.199219 -19.863281 19.964844 -16.816406 19.964844 -16.816406 C 19.964844 -16.816406 20.742188 -19.484375 21.597656 -21.550781 C 19.660156 -23.6875 16.488281 -24.671875 12.914062 -24.671875 C 5.589844 -24.671875 0.882812 -19.058594 0.882812 -12.160156 C 0.882812 -5.261719 5.589844 0.378906 12.914062 0.378906 Z M 12.914062 0.378906 "/></g></g></g><g fill="#000000" fill-opacity="1"><g transform="translate(230.520182, 114.499494)"><g><path d="M 0.503906 -24.292969 L 0.503906 -18.101562 C 1.738281 -19.257812 3.648438 -19.511719 4.882812 -19.511719 L 6.695312 -19.511719 L 6.695312 -3.148438 C 6.695312 -1.886719 6.394531 -0.503906 5.816406 0 L 13.242188 0 C 12.664062 -0.503906 12.359375 -1.863281 12.359375 -3.121094 L 12.359375 -19.511719 L 14.25 -19.511719 C 15.480469 -19.511719 17.394531 -19.257812 18.628906 -18.101562 L 18.628906 -24.292969 Z M 0.503906 -24.292969 "/></g></g></g><g fill="#000000" fill-opacity="1"><g transform="translate(251.790669, 114.499494)"><g><path d="M 0.882812 -12.132812 C 0.882812 -5.234375 4.304688 0.378906 12.261719 0.378906 C 20.214844 0.378906 23.636719 -5.234375 23.636719 -12.132812 C 23.636719 -19.058594 20.214844 -24.671875 12.261719 -24.671875 C 4.304688 -24.671875 0.882812 -19.058594 0.882812 -12.132812 Z M 6.546875 -12.160156 C 6.546875 -16.386719 8.257812 -19.8125 12.234375 -19.8125 C 16.261719 -19.8125 17.972656 -16.386719 17.972656 -12.160156 C 17.972656 -7.953125 16.261719 -4.507812 12.234375 -4.507812 C 8.257812 -4.507812 6.546875 -7.953125 6.546875 -12.160156 Z M 6.546875 -12.160156 "/></g></g></g></svg>